<svg width="144" height="32" viewBox="0 0 144 32" fill="none" xmlns="http://www.w3.org/2000/svg">
<g clip-path="url(#clip0)">
<path d="M40.0668 15.4943C42.2262 15.4943 43.6756 16.4704 44.563 17.6832V0.408411C44.563 0.083029 44.1785 -0.124032 43.9123 0.0830295L22.585 15.6718H23.147C25.3655 15.6718 26.4895 17.0916 26.4895 18.6298C26.4895 19.8426 25.8684 20.73 25.0105 21.1145C24.8626 21.1737 24.8626 21.3807 25.0105 21.4399C25.9867 21.854 26.6966 22.8893 26.6966 24.1317C26.6966 25.9065 25.543 27.2968 23.3245 27.2968H17.2605C17.1422 27.2968 17.0239 27.208 17.0239 27.0601V19.7242L1.13937 31.3492C0.873146 31.5859 0.991466 32 1.34643 32H44.1785C44.3855 32 44.5334 31.8521 44.5334 31.645V25.7586C43.3798 26.8235 41.8712 27.5038 40.0373 27.5038C36.606 27.5038 33.8254 25.1374 33.8254 21.4991C33.855 17.8311 36.6651 15.4943 40.0668 15.4943ZM31.5773 27.0897C31.5773 27.208 31.4886 27.2968 31.3703 27.2968H29.3292C29.2109 27.2968 29.1222 27.208 29.1222 27.0897V15.8788C29.1222 15.7605 29.2109 15.6718 29.3292 15.6718H31.3703C31.4886 15.6718 31.5773 15.7605 31.5773 15.8788V27.0897Z" fill="white"/>
<path d="M19.7466 20.2864H22.6158C23.4441 20.2864 23.9765 19.8131 23.9765 19.0736C23.9765 18.3637 23.4441 17.8608 22.6158 17.8608H19.6282C19.5691 17.8608 19.5099 17.92 19.5099 17.9792V20.0794C19.5099 20.1977 19.6282 20.2864 19.7466 20.2864Z" fill="white"/>
<path d="M19.7466 25.1373H22.7342C23.6511 25.1373 24.2132 24.6344 24.2132 23.8062C24.2132 23.0667 23.6807 22.4751 22.7342 22.4751H19.7466C19.6282 22.4751 19.5099 22.5638 19.5099 22.7117V24.9007C19.5099 25.019 19.6282 25.1373 19.7466 25.1373Z" fill="white"/>
<path d="M42.7011 19.0147C42.1391 18.2752 41.1925 17.6836 40.0685 17.6836C37.9387 17.6836 36.4005 19.3105 36.4005 21.4994C36.4005 23.6884 37.9387 25.3153 40.0685 25.3153C41.0446 25.3153 41.9616 24.9011 42.4645 24.487C42.4941 24.4574 42.5236 24.3983 42.5236 24.3391V23.2151C42.5236 23.1263 42.4349 23.0376 42.3462 23.0376H39.7135C39.5656 23.0376 39.4769 22.9193 39.4769 22.801V21.1445C39.4769 20.9966 39.5952 20.9078 39.7135 20.9078H44.5942V18.2752L43.0265 19.133C42.9082 19.1626 42.7603 19.1034 42.7011 19.0147Z" fill="white"/>
<path d="M46.397 21.4992C46.397 17.92 48.9705 15.4944 52.2834 15.4944C54.4428 15.4944 55.8331 16.5888 56.6613 17.92C56.7205 18.0087 56.6909 18.1566 56.5726 18.1862L55.2415 18.8961C55.1527 18.9553 55.0344 18.9257 55.0048 18.8369C54.4428 17.9495 53.4075 17.2988 52.2834 17.2988C50.0649 17.2988 48.4085 19.044 48.4085 21.4992C48.4085 23.9247 50.0649 25.6995 52.2834 25.6995C53.4075 25.6995 54.4428 25.0488 55.0048 24.1614C55.064 24.0726 55.1527 24.043 55.2415 24.1022L56.5726 24.7825C56.6909 24.8417 56.7205 24.96 56.6613 25.0783C55.8035 26.4095 54.4132 27.5335 52.2834 27.5335C48.9705 27.5039 46.397 25.0488 46.397 21.4992Z" fill="white"/>
<path d="M57.8149 21.4988C57.8149 18.6 59.4714 16.3519 61.9561 15.7011C66.1861 14.5771 70.0611 18.5408 69.1441 22.9482C68.582 25.6696 66.4227 27.5332 63.5534 27.5332C60.1813 27.5036 57.8149 24.9597 57.8149 21.4988ZM67.2509 21.4988C67.2509 19.1028 65.7719 17.2984 63.5238 17.2984C61.2462 17.2984 59.7967 19.1028 59.7967 21.4988C59.7967 23.8948 61.2462 25.6992 63.5238 25.6992C65.8015 25.6992 67.2509 23.8652 67.2509 21.4988Z" fill="white"/>
<path d="M81.3328 27.1488V18.3043L77.8128 27.2079C77.8128 27.2375 77.7536 27.2671 77.724 27.2671H76.9845C76.9549 27.2671 76.8958 27.2375 76.8958 27.2079L73.3462 18.3043V27.1488C73.3462 27.2375 73.287 27.2967 73.1983 27.2967H71.4234C71.3347 27.2967 71.2755 27.2375 71.2755 27.1488V15.79C71.2755 15.7013 71.3347 15.6421 71.4234 15.6421H73.9673C74.0857 15.6421 74.1744 15.7013 74.2336 15.8196L77.3395 23.8062L80.4158 15.8196C80.4454 15.7013 80.5637 15.6421 80.682 15.6421H83.2259C83.3146 15.6421 83.3738 15.7013 83.3738 15.79V27.1488C83.3738 27.2375 83.3146 27.2967 83.2259 27.2967H81.4511C81.4215 27.2967 81.3328 27.2375 81.3328 27.1488Z" fill="white"/>
<path d="M101.447 27.0893V15.8784C101.447 15.7601 101.536 15.6714 101.654 15.6714H109.197C109.316 15.6714 109.404 15.7601 109.404 15.8784V17.2391C109.404 17.3575 109.316 17.4462 109.197 17.4462H103.696C103.577 17.4462 103.488 17.5349 103.488 17.6533V20.2267C103.488 20.345 103.577 20.4338 103.696 20.4338H109.079C109.197 20.4338 109.286 20.5225 109.286 20.6408V22.0015C109.286 22.1199 109.197 22.2086 109.079 22.2086H103.696C103.577 22.2086 103.488 22.2973 103.488 22.4157V25.2258C103.488 25.3441 103.577 25.4328 103.696 25.4328H109.197C109.316 25.4328 109.404 25.5216 109.404 25.6399V27.0006C109.404 27.1189 109.316 27.2076 109.197 27.2076H101.654C101.536 27.2964 101.447 27.2076 101.447 27.0893Z" fill="white"/>
<path d="M118.87 27.1781L116.415 23.0368C116.385 22.9777 116.296 22.9481 116.237 22.9481H114.521C114.403 22.9481 114.314 23.0368 114.314 23.1552V27.0893C114.314 27.2076 114.226 27.2964 114.107 27.2964H112.51C112.392 27.2964 112.303 27.2076 112.303 27.0893V15.8784C112.303 15.7601 112.392 15.6714 112.51 15.6714H117.42C119.727 15.6714 121.236 17.1504 121.236 19.3097C121.236 21.2325 120.053 22.3269 118.751 22.6523C118.603 22.6819 118.544 22.8298 118.603 22.9777C119.077 23.7468 120.556 26.1132 121.118 26.971C121.207 27.1189 121.118 27.2964 120.94 27.2964H119.077C118.988 27.2964 118.929 27.2668 118.87 27.1781ZM119.136 19.2802C119.136 18.1561 118.308 17.4462 117.154 17.4462H114.551C114.433 17.4462 114.344 17.5349 114.344 17.6533V20.9366C114.344 21.055 114.433 21.1437 114.551 21.1437H117.154C118.308 21.1437 119.136 20.4338 119.136 19.2802Z" fill="white"/>
<path d="M135.018 27.0893V15.8784C135.018 15.7601 135.106 15.6714 135.225 15.6714H142.797C142.916 15.6714 143.004 15.7601 143.004 15.8784V17.2687C143.004 17.387 142.916 17.4758 142.797 17.4758H137.266C137.148 17.4758 137.059 17.5645 137.059 17.6828V20.2859C137.059 20.4042 137.148 20.4929 137.266 20.4929H142.649C142.768 20.4929 142.856 20.5817 142.856 20.7V22.0903C142.856 22.2086 142.768 22.2973 142.649 22.2973H137.266C137.148 22.2973 137.059 22.3861 137.059 22.5044V25.3441C137.059 25.4624 137.148 25.5512 137.266 25.5512H142.797C142.916 25.5512 143.004 25.6399 143.004 25.7582V27.1485C143.004 27.2668 142.916 27.3555 142.797 27.3555H135.225C135.106 27.2964 135.018 27.2076 135.018 27.0893Z" fill="white"/>
<path d="M122.714 21.4401C122.714 17.8609 125.287 15.4353 128.6 15.4353C130.76 15.4353 132.15 16.5298 132.978 17.8609C133.037 17.9496 133.008 18.0975 132.889 18.1271L131.558 18.837C131.469 18.8962 131.351 18.8666 131.322 18.7779C130.76 17.8905 129.724 17.2397 128.6 17.2397C126.382 17.2397 124.725 18.9849 124.725 21.4401C124.725 23.8656 126.382 25.6405 128.6 25.6405C129.724 25.6405 130.76 24.9897 131.322 24.1023C131.381 24.0135 131.469 23.984 131.558 24.0431L132.889 24.7235C133.008 24.7826 133.037 24.9009 132.978 25.0193C132.12 26.3504 130.73 27.4744 128.6 27.4744C125.287 27.4448 122.714 25.0193 122.714 21.4401Z" fill="white"/>
<path d="M96.4187 27.1488V18.3043L92.8987 27.2079C92.8987 27.2375 92.8395 27.2671 92.8099 27.2671H92.0704C92.0409 27.2671 91.9817 27.2375 91.9817 27.2079L88.4321 18.3043V27.1488C88.4321 27.2375 88.3729 27.2967 88.2842 27.2967H86.5094C86.4206 27.2967 86.3615 27.2375 86.3615 27.1488V15.79C86.3615 15.7013 86.4206 15.6421 86.5094 15.6421H89.0533C89.1716 15.6421 89.2603 15.7013 89.3195 15.8196L92.4254 23.8062L95.5017 15.8196C95.5313 15.7013 95.6496 15.6421 95.768 15.6421H98.3119C98.4006 15.6421 98.4598 15.7013 98.4598 15.79V27.1488C98.4598 27.2375 98.4006 27.2967 98.3119 27.2967H96.537C96.4779 27.2967 96.4187 27.2375 96.4187 27.1488Z" fill="white"/>
</g>
<defs>
<clipPath id="clip0">
<rect width="142.011" height="32" fill="white" transform="translate(0.994293)"/>
</clipPath>
</defs>
</svg>
