<svg width="100" height="22" viewBox="0 0 100 22" fill="none" xmlns="http://www.w3.org/2000/svg">
<path fill-rule="evenodd" clip-rule="evenodd" d="M7.282 18.3918V10.0607H9.12787C12.5441 10.0607 14.9685 11.2427 14.9685 15.192C14.9685 18.536 13.5084 20.1215 10.2574 20.1215C8.68706 20.1215 7.282 20.0638 7.282 18.3918ZM7.282 9.25586V2.31463C7.282 1.26129 7.46106 1.20728 8.86374 1.20728C12.8032 1.20728 14.564 2.04454 14.564 4.93447C14.564 7.55432 13.0718 9.20185 10.0277 9.25586H7.282ZM2.607 3.50688V17.4194C2.607 19.8915 2.35197 20.1215 0 20.1502V20.9263H10.2296C14.3668 20.9263 19.0141 20.2077 19.0141 15.3786C19.0141 11.8717 15.727 10.3769 12.8366 9.80203V9.74454C15.3586 9.28462 17.8239 7.78988 17.8239 4.88664C17.8239 0.632389 12.4966 0 9.03948 0H0V0.776114C2.35197 0.804859 2.607 1.03482 2.607 3.50688ZM23.1323 10.5141C23.1323 10.1767 22.8048 9.83932 21.2566 9.75497V9.08015C23.0132 8.77086 24.74 8.23663 26.4668 7.64617V18.8088C26.4668 19.6804 26.6454 19.8491 28.1341 19.8491V20.5239H21.3459V19.8491C22.9537 19.8491 23.1323 19.6804 23.1323 18.8088V10.5141ZM26.9046 2.12208C26.9046 3.3347 25.8535 4.24416 24.7714 4.24416C23.6893 4.24416 22.6381 3.3347 22.6381 2.12208C22.6381 0.909462 23.6893 0 24.7714 0C25.8535 0 26.9046 0.909462 26.9046 2.12208ZM37.8143 9.17902C37.8752 9.2558 37.9298 9.34359 37.9769 9.444L43.1044 20.8596H43.8866L48.1161 10.7374L52.4326 20.8596H53.3017L57.2995 11.1592C57.763 10.0063 58.2554 8.88165 59.617 8.65671V7.9819H55.2426V8.65671L55.3078 8.66724C56.1504 8.8032 56.8939 8.92316 56.8939 9.444C56.8939 9.66894 56.7201 10.0907 56.4883 10.653L54.1708 16.8389L51.4766 10.3438C51.4356 10.2342 51.3727 10.0894 51.3087 9.94181C51.1919 9.67266 51.071 9.39421 51.071 9.30341C51.071 8.93789 51.7953 8.74106 52.8961 8.65671V7.9819H45.3061V8.65671C46.9863 8.7973 47.5078 9.33153 47.5078 9.80952C47.5078 10.0947 47.3422 10.4803 47.1335 10.9664C47.0953 11.0554 47.0557 11.1478 47.0153 11.2435L44.7557 16.7264L42.0326 10.5406C41.9708 10.3864 41.9064 10.2427 41.8466 10.1094C41.7101 9.80512 41.598 9.55518 41.598 9.35965C41.598 8.99412 42.3512 8.65671 43.568 8.65671V7.9819H36.5574V7.98763L33.8679 7.99212V3.21945L29.2745 8.30277V8.98054H30.7873V18.3C30.7873 19.825 32.08 20.9263 34.0329 20.9263C35.2432 20.9263 37.1135 20.1074 37.8012 19.1189V18.1023C37.1685 18.6953 36.3984 19.4013 35.4907 19.4013C34.0054 19.4013 33.8679 18.4129 33.8679 17.7351V8.98054L37.0357 8.97438C37.0357 8.97438 37.6785 9.02621 37.8143 9.17902ZM60.83 9.75497C62.3781 9.83932 62.7056 10.1767 62.7056 10.5141V18.8088C62.7056 19.6804 62.527 19.8491 60.9193 19.8491V20.5239H67.7074V19.8491C66.2188 19.8491 66.0401 19.6804 66.0401 18.8088V7.64617C64.3133 8.23663 62.5865 8.77086 60.83 9.08015V9.75497ZM64.3762 4.24416C65.4583 4.24416 66.5095 3.3347 66.5095 2.12208C66.5095 0.909462 65.4583 0 64.3762 0C63.2941 0 62.2429 0.909462 62.2429 2.12208C62.2429 3.3347 63.2941 4.24416 64.3762 4.24416ZM79.6856 8.6872C78.0263 8.09634 76.5152 7.64617 75.0041 7.64617C72.693 7.64617 69.7301 8.79974 69.7301 11.3883C69.7301 13.414 71.6264 14.4551 73.5227 15.2991C75.4189 16.1714 77.3152 16.8748 77.3152 18.2253C77.3152 19.3507 76.6041 20.2511 75.3597 20.2511C72.4856 20.2511 71.0634 17.9721 70.5301 15.5805L69.819 15.6931L70.0856 19.9416C71.2708 20.448 73.4041 20.9263 74.6782 20.9263C77.5226 20.9263 80.2485 20.0541 80.2485 16.931C80.2485 14.7646 78.2634 13.8079 76.4263 12.9357C74.1745 11.8666 72.4856 11.135 72.4856 10.1784C72.4856 9.10924 73.493 8.32143 74.5301 8.32143C76.9597 8.32143 78.2337 10.516 78.9745 12.4574L79.6856 12.4011V8.6872ZM94.3275 16.0307L94.7394 16.4527C93.5625 19.21 91.5618 20.9263 88.2959 20.9263C84.0885 20.9263 81.7936 18.3941 81.7936 14.5113C81.7936 10.6567 84.677 7.64617 88.7078 7.64617C91.8854 7.64617 94.6805 9.92518 94.6805 13.0764H85.0889C84.9418 15.7775 86.7071 18.3941 89.767 18.3941C91.7972 18.3941 93.1212 17.55 94.3275 16.0307ZM85.1029 12.4753H90.4557C90.9995 12.4753 91.1713 12.3942 91.1713 11.8266C91.1713 10.1508 89.8546 8.85344 88.3089 8.85344C85.9044 8.85344 85.2174 10.8265 85.1029 12.4753Z" fill="white"/>
<path d="M96.4186 9.54715C97.7042 9.54715 98.7362 8.51076 98.7362 7.22511C98.7362 5.93947 97.7042 4.90308 96.4186 4.90308C95.1373 4.90308 94.1009 5.93947 94.1009 7.22511C94.1009 8.51076 95.1373 9.54715 96.4186 9.54715ZM96.4186 8.95243C95.4565 8.95243 94.6825 8.18279 94.6825 7.22511C94.6825 6.26306 95.4565 5.4978 96.4186 5.4978C97.385 5.4978 98.1546 6.26306 98.1546 7.22511C98.1546 8.18279 97.385 8.95243 96.4186 8.95243ZM96.0512 8.25713V7.53559H96.3792L96.8646 8.25713H97.5162L96.9608 7.45688C97.245 7.3738 97.4112 7.13328 97.4112 6.80968C97.4112 6.403 97.092 6.1275 96.6241 6.1275H95.5046V8.25713H96.0512ZM96.0512 6.58229H96.4929C96.7115 6.58229 96.8252 6.67412 96.8252 6.84904C96.8252 7.02833 96.7115 7.11142 96.4842 7.11142H96.0512V6.58229Z" fill="white"/>
</svg>
