<svg width="116" height="34" viewBox="0 0 116 34" fill="none" xmlns="http://www.w3.org/2000/svg">
<path d="M0.0739136 7.86177L14.89 0.909532C15.7445 0.510355 16.5418 0.567531 17.3973 0.966708L31.359 7.52083C31.701 7.69024 32.1001 7.80671 32.1001 8.20483C32.1001 8.71836 31.6449 8.77447 31.3029 8.946L17.9109 15.2142C16.6572 15.7839 15.5814 15.7839 14.3214 15.2142L0.0739136 8.59871V7.85753V7.86177ZM0.0739136 25.5844L2.69556 24.2735C3.77874 23.7039 4.80262 23.8182 5.88685 24.3307L14.4919 28.3754C15.5751 28.8889 16.599 28.8889 17.6832 28.3754L26.4026 24.2725C27.4858 23.7589 28.5097 23.7589 29.5939 24.2725C30.2207 24.6145 30.9047 24.8993 31.5316 25.1831C31.8174 25.3525 32.2156 25.4689 32.1584 25.8671C32.1584 26.2091 31.8164 26.3806 31.5316 26.4939L25.0346 29.5708L17.6832 32.9908C16.7144 33.4461 15.7456 33.5044 14.7767 33.048L0.985561 26.6082C0.699678 26.4939 0.472032 26.2662 0.188267 26.0947C0.0739139 25.9804 0.0739136 25.8088 0.0739136 25.5812V25.5844ZM0.0739136 16.7517L2.06874 15.7828C3.60721 14.8722 5.03344 15.0417 6.62803 15.84L14.7206 19.6581C15.7477 20.1134 16.6583 20.1134 17.6271 19.6581L26.2321 15.6134C27.4286 15.0438 28.5616 14.9866 29.7686 15.6134L31.7634 16.5822C32.3331 16.9242 32.277 17.2662 31.7634 17.6093C31.594 17.7236 31.4214 17.7787 31.2499 17.8369L17.517 24.2195C16.6064 24.6748 15.6937 24.6748 14.7789 24.2195L1.04591 17.8369C0.703914 17.6675 0.41909 17.4378 0.0770903 17.2673V16.7538L0.0739136 16.7517ZM45.4254 7.11636V13.9278C45.6404 13.9595 45.7007 13.8356 45.7939 13.7435C48.1254 11.2585 52.4814 11.6259 54.508 14.4794C56.5018 17.2408 56.4404 22.0288 54.3545 24.6971C52.2686 27.3653 48.2493 27.6406 45.8257 25.2477L45.4265 24.8792V26.1074C45.4265 26.4251 45.3037 26.5669 44.967 26.5669H42.0838C41.745 26.5669 41.5936 26.4441 41.5936 26.1074V7.82153L41.6253 7.11636H45.4371H45.4254ZM45.4254 19.4517V21.4465C45.4029 21.6367 45.434 21.8293 45.5152 22.0028C45.5964 22.1762 45.7245 22.3235 45.885 22.428C46.1306 22.6122 46.3445 22.7965 46.6208 22.95C48.9217 24.2079 51.375 23.1649 51.9287 20.6799C52.0823 19.9747 52.113 19.2378 51.9605 18.5019C51.6852 17.1212 51.0393 16.0168 49.629 15.6177C48.1572 15.1878 46.8061 15.5859 45.7029 16.6606C45.4879 16.8448 45.4276 17.0905 45.4276 17.3658V19.4517H45.4254ZM115.895 15.9522C115.19 16.0136 114.515 15.8601 113.81 16.0751L113.012 16.3504C111.969 16.7495 111.447 17.3933 111.509 18.6512L111.54 25.7982C111.54 26.5034 111.54 26.5034 110.865 26.5034H108.38C107.981 26.5034 107.89 26.3499 107.89 25.9528L107.921 13.9564C107.921 12.6985 107.89 12.6985 109.118 12.6985H111.02C111.449 12.6667 111.602 12.852 111.57 13.2808C111.538 13.6493 111.57 13.986 111.57 14.4455C112.859 13.2491 114.147 12.2982 115.926 12.4211L115.894 15.9491L115.895 15.9522ZM100.279 20.8609H95.8614C95.2791 20.8609 95.1859 20.9531 95.4019 21.5047C96.1071 23.2835 97.5492 24.0512 99.5133 23.8659C100.587 23.7738 101.631 23.436 102.489 22.7308C102.673 22.5773 102.806 22.5773 102.948 22.7922L104.206 24.6325C104.39 24.9078 104.238 25.0624 104.052 25.2148C103.225 25.8904 102.274 26.2885 101.23 26.5341C99.0824 27.0561 96.9658 27.0244 95.0017 25.9518C92.3017 24.5097 91.2894 22.0871 91.4017 19.1404C91.5245 15.8898 93.9481 13.1262 97.1087 12.5471C101.189 11.8112 104.687 14.3259 105.269 18.468C105.361 19.0821 105.361 19.6962 105.392 20.3082C105.392 20.7074 105.238 20.8588 104.841 20.8588C103.306 20.8271 101.802 20.8588 100.27 20.8588L100.279 20.8609ZM98.5 18.3145H101.2C101.814 18.3145 101.844 18.2827 101.69 17.6707C101.291 16.1672 100.033 15.3392 98.2544 15.4006C97.5413 15.429 96.8583 15.6951 96.3139 16.1566C95.7696 16.618 95.3953 17.2483 95.2505 17.9471C95.1891 18.2859 95.3426 18.3462 95.619 18.3462L98.5032 18.3145H98.5ZM67.1768 24.8792C66.441 25.5547 65.7347 26.0757 64.9067 26.3827C63.5171 26.9336 61.982 26.9985 60.5507 26.5669C59.079 26.1371 58.0964 24.7881 58.0043 23.1639L57.9429 16.506V13.3782C57.9429 12.9187 58.0657 12.7027 58.557 12.7345H60.9499C61.6551 12.7345 61.6551 12.7345 61.6551 13.41V20.8641C61.6551 22.8272 62.391 23.5324 64.3551 23.4688C65.4287 23.4371 66.2271 22.9182 66.9598 22.2109C67.1747 21.996 67.144 21.7207 67.144 21.4751V13.4672C67.144 12.7313 67.144 12.7313 67.8799 12.7313H70.3046C70.7038 12.7313 70.8266 12.8848 70.8266 13.2533V25.9549C70.8266 26.3541 70.6731 26.5055 70.276 26.5055C69.3968 26.475 68.5167 26.475 67.6374 26.5055C67.2383 26.5055 67.0869 26.352 67.1154 25.9835C67.2076 25.6659 67.1768 25.3398 67.1768 24.8792ZM88.0388 21.2792V25.9115C88.0388 26.3711 87.916 26.5257 87.4565 26.5257C86.6079 26.495 85.7586 26.495 84.91 26.5257C84.4505 26.5257 84.2959 26.3721 84.2959 25.9115V16.7082C84.2959 15.9724 84.2959 15.9724 83.56 15.9724H82.5171C82.2418 15.9724 82.0872 15.8802 82.0872 15.5732V13.1802C82.0872 12.8414 82.2407 12.7504 82.5467 12.7504H83.8353C84.1741 12.7504 84.2949 12.6275 84.2949 12.2908C84.2899 11.8277 84.3311 11.3651 84.4177 10.9101C84.8772 8.45577 87.0563 6.95224 89.6334 7.31012C90.5546 7.43294 91.4123 7.62777 92.1799 8.2313C92.4976 8.47694 92.6098 8.69083 92.3334 9.0593C92.0158 9.45847 91.7511 9.91694 91.5054 10.3479C91.3212 10.6655 91.137 10.7778 90.8003 10.5321C90.6053 10.4059 90.386 10.3222 90.1565 10.2865C88.8372 9.96883 87.6407 11.268 88.0388 12.5566C88.1003 12.8022 88.3141 12.7715 88.4687 12.7715H90.309C90.6266 12.7715 90.7992 12.8637 90.7992 13.2311V15.5626C90.7992 15.8802 90.6764 16.0221 90.3397 15.9925H88.6826C87.9774 15.9925 87.9774 15.9925 87.9774 16.668L88.0388 21.2675V21.2792ZM75.153 21.1871V16.5335C75.153 16.1344 75.0301 15.9512 74.631 15.9829C74.2011 16.0147 73.7733 15.9829 73.3424 15.9829C73.0247 15.9829 72.8829 15.8908 72.8829 15.5531V13.1601C72.8829 12.8425 73.0364 12.7302 73.3127 12.7609H74.6627C75.0619 12.7927 75.1847 12.6381 75.1847 12.2389C75.153 11.2881 75.2768 10.3373 75.7671 9.50718C76.6883 7.91259 78.4988 7.05283 80.4301 7.30059C81.3196 7.42341 82.1793 7.57588 82.9152 8.12859C83.4372 8.52777 83.4658 8.58812 83.1301 9.11012L82.3329 10.368C82.1793 10.6433 81.994 10.7365 81.6891 10.5215C81.3841 10.3066 81.0136 10.1827 80.6154 10.1827C79.419 10.1827 78.5613 11.3474 78.9584 12.5142C79.0505 12.7599 79.2337 12.7292 79.3883 12.7292H81.1671C81.5059 12.7292 81.6573 12.852 81.6266 13.1887V15.4895C81.6266 15.8284 81.5038 15.9798 81.1671 15.9491H79.5407C79.0505 15.9173 78.897 16.1026 78.9266 16.5632V25.614C78.9266 26.4717 78.9266 26.4716 78.0372 26.4716C77.3013 26.4716 76.5337 26.4399 75.7978 26.4716C75.3679 26.4716 75.1837 26.3488 75.1837 25.8575L75.1519 21.1945L75.153 21.1871Z" fill="white"/>
</svg>
