<svg width="120" height="120" viewBox="0 0 120 120" fill="none" xmlns="http://www.w3.org/2000/svg">
<path d="M60 120C93.1371 120 120 93.1371 120 60C120 26.8629 93.1371 0 60 0C26.8629 0 0 26.8629 0 60C0 93.1371 26.8629 120 60 120Z" fill="url(#paint0_linear)"/>
<path d="M37.8492 11.8233L63.3738 19.1118C63.6393 19.1905 63.7967 19.4659 63.7181 19.7217L56.7443 45.1675C56.7049 45.3053 56.7344 45.4626 56.8131 45.5807L87.059 90.079C87.0689 90.0889 87.0689 90.0987 87.0787 90.1085C87.2361 90.3741 89.2426 93.8856 89.223 95.9413C89.2131 96.4921 88.8197 96.9741 88.2787 97.0921C87.9541 97.161 87.6 97.22 87.3541 97.3184C87.1869 97.3774 87.059 97.5249 87.0295 97.702L86.9016 98.4594C86.8721 98.6561 86.7246 98.8134 86.5377 98.8626L85.977 99.0102C85.7803 99.0593 85.6328 99.2364 85.6131 99.4331L85.2393 102.679C85.2196 102.817 85.1508 102.945 85.0426 103.023L84.0885 103.741C83.9803 103.83 83.9016 103.948 83.8918 104.095L83.6065 106.85C83.5967 106.968 83.6262 107.076 83.6853 107.174L84.5114 108.453C84.659 108.679 84.6 108.994 84.3639 109.141L82.977 110.066C82.8787 110.135 82.7607 110.164 82.6426 110.145L65.1541 108.256C64.8983 108.227 64.7114 108.01 64.7114 107.754C64.7114 107.568 64.6033 107.39 64.4361 107.302L64.0328 107.095C63.8065 106.977 63.6983 106.712 63.7869 106.476L64.2393 105.276C64.2688 105.197 64.2787 105.118 64.2689 105.04L63.8656 101.548C63.8557 101.43 63.7967 101.322 63.7082 101.233L62.5967 100.21C62.4984 100.112 62.4393 99.9839 62.4393 99.8462V98.9118C62.4393 98.7544 62.3607 98.597 62.2328 98.5085L61.0525 97.6725C60.9639 97.6134 60.9049 97.5249 60.8656 97.4266L60.6295 96.7184C60.6 96.6397 60.5607 96.5807 60.5115 96.5217L59.8623 95.8725C59.7737 95.7839 59.6557 95.7348 59.5279 95.7249L57.8557 95.6462C57.5705 95.6364 57.3541 95.3905 57.3836 95.1053L57.5213 93.5512C57.541 93.3053 57.3836 93.0889 57.1475 93.02L54.5016 92.3118C54.3737 92.2725 54.2655 92.1938 54.1967 92.0757L52.6721 89.4003C52.6033 89.2823 52.4951 89.1938 52.3573 89.1643L51.0787 88.8397C50.9213 88.8003 50.7935 88.6921 50.7344 88.5446L50.459 87.8462C50.4197 87.7479 50.3508 87.6692 50.2721 87.6102L47.6459 85.8987C47.6066 85.8692 47.5574 85.8495 47.5082 85.8397L43.2984 84.6594C43.0721 84.6003 42.9246 84.3938 42.9344 84.1577L42.9738 82.702C42.9738 82.6725 42.9738 82.643 42.9836 82.6036L43.1803 81.7085C43.1803 81.6889 43.1901 81.6692 43.1901 81.6495L43.2787 80.7053C43.2885 80.5676 43.3672 80.4397 43.4754 80.3512L43.9967 79.9577C44.1049 79.879 44.1738 79.761 44.1934 79.6233L44.2033 79.5249C44.2426 79.2692 44.0754 79.0233 43.8197 78.9643L43.2491 78.8364C43.0229 78.7872 42.8656 78.5807 42.8656 78.3446V77.5774C42.8656 77.4889 42.8951 77.4003 42.9344 77.3216L43.2394 76.8102C43.3869 76.5643 43.2984 76.2495 43.0426 76.1118L42.3344 75.7282C42.1869 75.6495 42.0885 75.4921 42.0689 75.3249L41.9902 74.2036C41.9803 74.1249 41.9606 74.0364 41.9115 73.9675L41.2918 72.9839C41.2426 72.9151 41.1836 72.8561 41.1147 72.8167L40.5049 72.4823C40.3475 72.3938 40.2492 72.2266 40.2492 72.0397V71.0462C40.2492 70.9675 40.2295 70.879 40.1901 70.8102L39.4524 69.4331C39.4033 69.3446 39.3836 69.2364 39.3934 69.138L39.4623 68.6167C39.482 68.4987 39.4524 68.3807 39.3836 68.2725L38.7049 67.2495C38.6459 67.1708 38.6164 67.0725 38.6164 66.9741V66.0298C38.6164 65.8921 38.6655 65.7741 38.7639 65.6757L39.0885 65.3512C39.1377 65.302 39.1672 65.2528 39.1967 65.1938L39.3541 64.8298C39.4328 64.643 39.3935 64.4266 39.2459 64.279L38.5869 63.62C38.4196 63.4528 38.3901 63.1872 38.5278 62.9905L38.5869 62.902C38.6754 62.7643 38.8328 62.6757 39 62.6757H39.5902C39.8459 62.6757 40.0623 62.4889 40.0918 62.2331L40.2098 61.2102C40.2393 60.9839 40.1115 60.7774 39.9049 60.6889L37.2983 59.6069C37.1803 59.5577 37.082 59.4692 37.0328 59.3512L36.7279 58.6528C36.6984 58.5839 36.6885 58.5151 36.6885 58.4462V55.3184C36.6885 55.2298 36.6688 55.1413 36.6196 55.0725L36.3934 54.679C36.3049 54.5216 36.3049 54.3348 36.3934 54.1774L37.2 52.8102C37.2787 52.6725 37.2885 52.4954 37.2295 52.3479L35.9312 49.4856C35.8623 49.3282 35.7049 49.2102 35.5279 49.1905L34.3279 49.0626C34.023 49.0331 33.8164 48.738 33.8951 48.443L34.0426 47.8626C34.0721 47.7544 34.1311 47.6659 34.2196 47.5971L35.0066 46.9676C35.1148 46.8889 35.1738 46.761 35.1935 46.6331L35.2623 46.0528C35.2721 45.9348 35.2426 45.8069 35.1738 45.7085L33.7181 43.6725C33.6787 43.6135 33.6492 43.5446 33.6393 43.4757L33.4525 42.5413C33.4426 42.5118 33.4426 42.4725 33.4426 42.443V41.843V41.4102C33.4426 41.2135 33.3246 41.0364 33.1475 40.9577L32.5279 40.6725C32.3508 40.5938 32.2426 40.4266 32.2328 40.2397L32.1344 37.702C32.1344 37.6528 32.1344 37.5938 32.1541 37.5446L32.8721 35.0659C32.8819 35.0266 32.8918 34.9971 32.9115 34.9676L33.4623 33.9544C33.5115 33.8659 33.5312 33.7676 33.5213 33.6692L33.118 29.4102C33.1082 29.3118 33.0688 29.2233 33.0098 29.1446L31.5836 27.3348C31.5147 27.2462 31.4754 27.138 31.4754 27.02V25.1413C31.4754 24.9938 31.5344 24.8659 31.6426 24.7676L33.3541 23.243C33.4032 23.2036 33.4426 23.1544 33.4722 23.0954L34.8197 20.4102C34.8394 20.3807 34.8492 20.3512 34.859 20.3118L35.3705 18.3839C35.3803 18.3348 35.4099 18.2758 35.4394 18.2364L36.8361 16.1315C36.8853 16.0626 36.9148 15.984 36.9148 15.8954L37.2295 12.2364C37.2393 11.9512 37.5442 11.7348 37.8492 11.8233Z" fill="white"/>
<defs>
<linearGradient id="paint0_linear" x1="2.90485e-06" y1="-18.75" x2="128.59" y2="-10.2709" gradientUnits="userSpaceOnUse">
<stop stop-color="#732DE6"/>
<stop offset="1" stop-color="#552BEE"/>
</linearGradient>
</defs>
</svg>
