<svg width="120" height="120" viewBox="0 0 120 120" fill="none" xmlns="http://www.w3.org/2000/svg">
<path d="M60 120C93.1371 120 120 93.1371 120 60C120 26.8629 93.1371 0 60 0C26.8629 0 0 26.8629 0 60C0 93.1371 26.8629 120 60 120Z" fill="url(#paint0_linear)"/>
<path d="M60 109.18C87.1615 109.18 109.18 87.1615 109.18 59.9999C109.18 32.8384 87.1615 10.8196 60 10.8196C32.8384 10.8196 10.8196 32.8384 10.8196 59.9999C10.8196 87.1615 32.8384 109.18 60 109.18Z" fill="#29193D"/>
<path d="M59.8032 26.341L62.8426 28.682L61.5541 25.0721L64.7213 22.8984L60.8852 23.0066L59.8032 19.3279L58.7114 23.0066L54.8852 22.8984L58.0426 25.0721L56.7639 28.682L59.8032 26.341Z" fill="#F1F1F1"/>
<path d="M59.8032 98.1442L62.8426 100.485L61.5541 96.8754L64.7213 94.7016L60.8852 94.8098L59.8032 91.1311L58.7114 94.8098L54.8852 94.7016L58.0426 96.8754L56.7639 100.485L59.8032 98.1442Z" fill="#F1F1F1"/>
<path d="M96.1967 61.7507L99.236 64.0917L97.9475 60.4818L101.115 58.308L97.2786 58.4162L96.1967 54.7375L95.1049 58.4162L91.2786 58.308L94.436 60.4818L93.1573 64.0917L96.1967 61.7507Z" fill="#F1F1F1"/>
<path d="M24.3934 61.7507L27.4327 64.0917L26.1442 60.4818L29.3114 58.308L25.4753 58.4162L24.3934 54.7375L23.3016 58.4162L19.4753 58.308L22.6327 60.4818L21.354 64.0917L24.3934 61.7507Z" fill="#F1F1F1"/>
<path d="M28.3278 44.0458L31.3672 46.3868L30.0786 42.777L33.2459 40.6032L29.4098 40.7114L28.3278 37.0327L27.236 40.7114L23.4098 40.6032L26.5672 42.777L25.2885 46.3868L28.3278 44.0458Z" fill="#F1F1F1"/>
<path d="M42.0983 31.259L45.1377 33.5999L43.8492 29.9901L47.0164 27.8163L43.1803 27.9245L42.0983 24.2458L41.0065 27.9245L37.1803 27.8163L40.3377 29.9901L39.059 33.5999L42.0983 31.259Z" fill="#F1F1F1"/>
<path d="M77.5082 31.259L80.5475 33.5999L79.259 29.9901L82.4262 27.8163L78.5901 27.9245L77.5082 24.2458L76.4164 27.9245L72.5901 27.8163L75.7475 29.9901L74.4688 33.5999L77.5082 31.259Z" fill="#F1F1F1"/>
<path d="M42.0983 93.226L45.1377 95.567L43.8492 91.9572L47.0164 89.7834L43.1803 89.8916L42.0983 86.2129L41.0065 89.8916L37.1803 89.7834L40.3377 91.9572L39.059 95.567L42.0983 93.226Z" fill="#F1F1F1"/>
<path d="M77.5082 93.226L80.5475 95.567L79.259 91.9572L82.4262 89.7834L78.5901 89.8916L77.5082 86.2129L76.4164 89.8916L72.5901 89.7834L75.7475 91.9572L74.4688 95.567L77.5082 93.226Z" fill="#F1F1F1"/>
<path d="M91.2787 44.0458L94.318 46.3868L93.0295 42.777L96.1967 40.6032L92.3607 40.7114L91.2787 37.0327L90.1869 40.7114L86.3607 40.6032L89.518 42.777L88.2393 46.3868L91.2787 44.0458Z" fill="#F1F1F1"/>
<path d="M28.3278 79.4557L31.3672 81.7967L30.0786 78.1869L33.2459 76.0131L29.4098 76.1213L28.3278 72.4426L27.236 76.1213L23.4098 76.0131L26.5672 78.1869L25.2885 81.7967L28.3278 79.4557Z" fill="#F1F1F1"/>
<path d="M91.2787 79.4557L94.318 81.7967L93.0295 78.1869L96.1967 76.0131L92.3607 76.1213L91.2787 72.4426L90.1869 76.1213L86.3607 76.0131L89.518 78.1869L88.2393 81.7967L91.2787 79.4557Z" fill="#F1F1F1"/>
<path d="M45.9836 57.5408C45.8361 56.3211 44.9311 55.6129 43.7016 55.6129C42.2361 55.6129 41.1836 56.6261 41.1836 58.849V60.2752C41.1836 62.1933 41.9016 63.5801 43.7213 63.5801C45.1574 63.5801 46.0525 62.6752 46.0525 61.5638V60.8949H43.7803V59.0949H48.4033V61.3965C48.4033 63.2752 47.1738 65.6261 43.6918 65.6261C40.2197 65.6261 38.6951 63.3343 38.6951 60.2752V58.8293C38.6951 55.6326 40.5639 53.5474 43.7311 53.5474C46.8 53.5474 48.3049 55.5047 48.3836 57.531H45.9836V57.5408Z" fill="white"/>
<path d="M54.6886 53.7834C58.4459 53.7834 59.9017 56.1343 59.9017 59.5671C59.9017 62.99 58.4558 65.4195 54.6886 65.4195H50.3312V53.7834H54.6886ZM52.8099 63.4228H54.3345C56.2328 63.4228 57.3738 62.4589 57.3738 59.6162C57.3738 57.4425 56.6853 55.7802 54.3345 55.7802H52.8099V63.4228Z" fill="white"/>
<path d="M66.4623 53.7834C69.0197 53.7834 70.4459 55.5244 70.4459 57.7179C70.4459 59.931 69.0098 61.613 66.4426 61.613H64.1902V65.4195H61.7311V53.7834H66.4623ZM64.1803 59.7048H65.4885C67.0131 59.7048 67.9475 59.2228 67.9475 57.7179C67.9475 56.4392 67.2 55.7212 65.9606 55.7212H64.1902V59.7048H64.1803Z" fill="white"/>
<path d="M80.9016 57.5015C80.9016 59.4195 79.6524 60.4326 78.7967 60.7769L81.1279 65.4195H78.3836L76.3672 61.1408H74.4492V65.4195H72.0197V53.7834H76.7606C79.5541 53.7834 80.9016 55.4064 80.9016 57.5015ZM76.3672 59.3211C77.5967 59.3211 78.3639 58.7113 78.3639 57.5408C78.3639 56.3015 77.5278 55.6818 76.4065 55.6818H74.459V59.3211H76.3672Z" fill="white"/>
<defs>
<linearGradient id="paint0_linear" x1="2.90485e-06" y1="-18.75" x2="128.59" y2="-10.2709" gradientUnits="userSpaceOnUse">
<stop stop-color="#732DE6"/>
<stop offset="1" stop-color="#552BEE"/>
</linearGradient>
</defs>
</svg>
