<svg width="16" height="16" viewBox="0 0 16 16" fill="none" xmlns="http://www.w3.org/2000/svg">
<path fill-rule="evenodd" clip-rule="evenodd" d="M0.25 8C0.25 7.58579 0.585786 7.25 1 7.25H15C15.4142 7.25 15.75 7.58579 15.75 8C15.75 8.41421 15.4142 8.75 15 8.75H1C0.585786 8.75 0.25 8.41421 0.25 8Z" fill="#281D39"/>
<path fill-rule="evenodd" clip-rule="evenodd" d="M8.53033 0.46967C8.82322 0.762563 8.82322 1.23744 8.53033 1.53033L2.06066 8L8.53033 14.4697C8.82322 14.7626 8.82322 15.2374 8.53033 15.5303C8.23744 15.8232 7.76256 15.8232 7.46967 15.5303L0.46967 8.53033C0.176777 8.23744 0.176777 7.76256 0.46967 7.46967L7.46967 0.46967C7.76256 0.176777 8.23744 0.176777 8.53033 0.46967Z" fill="#281D39"/>
</svg>
