<svg width="94" height="32" viewBox="0 0 94 32" fill="none" xmlns="http://www.w3.org/2000/svg">
<path d="M10.1628 4.29468C13.3514 4.29468 16.7663 5.96508 16.7663 10.4161C16.7663 12.643 15.8225 14.1163 14.2289 15.1639C15.8225 16.2111 16.7663 17.6848 16.7663 19.9114C16.7663 24.3644 13.3497 26.0331 10.1628 26.0331H0.0114746V4.29468H10.1628ZM10.1286 7.04466H2.94008V13.7896H10.1305C12.3431 13.7896 13.8395 12.643 13.8395 10.4181C13.8378 8.1916 12.3412 7.04466 10.1286 7.04466ZM10.1286 16.5399H2.94008V23.2848H10.1305C12.3431 23.2848 13.8395 22.1379 13.8395 19.9134C13.8378 17.6865 12.3412 16.5399 10.1286 16.5399Z" fill="white"/>
<path d="M53.0122 7.0449V13.7898H62.404V16.5401H53.0122V23.2851H64.7249V26.035H50.0857V4.29492H64.7249V7.0449H53.0122Z" fill="white"/>
<path d="M80.1755 11.2131L75.2431 4.29468H71.8912L78.5098 13.5467L80.1755 11.2131Z" fill="white"/>
<path d="M84.2321 16.8782L82.5668 19.2061L87.4419 26.0349H90.7618L84.2321 16.8782Z" fill="white"/>
<path d="M71.1048 32H67.7849L90.6383 0H93.9885L71.1048 32Z" fill="white"/>
<path d="M35.9997 17.0637C39.6766 16.8017 42.2141 14.5751 42.2141 10.6799C42.2141 6.58792 39.3842 4.29639 35.3159 4.29639H24.8077V7.0467H35.3159C37.6576 7.0467 39.2852 8.32333 39.2852 10.6799C39.2852 13.0364 37.6576 14.3134 35.3159 14.3134H24.8077V26.0348H27.7362V17.0637H32.355L39.1542 26.0348H42.7988L35.9997 17.0637Z" fill="white"/>
</svg>
