<svg width="120" height="120" viewBox="0 0 120 120" fill="none" xmlns="http://www.w3.org/2000/svg">
<circle cx="60" cy="60" r="60" fill="url(#paint0_linear)"/>
<path d="M81.1323 37.7248C80.8878 34.4291 79.5489 31.3096 77.3283 28.8621C75.1077 26.4146 72.1328 24.7795 68.8763 24.2166C65.6198 23.6537 62.2686 24.1954 59.3553 25.7555C56.4419 27.3156 54.1336 29.8046 52.7971 32.8271C51.2921 32.2685 49.6995 31.9831 48.0943 31.9844C45.0355 31.9823 42.0644 33.0065 39.6567 34.8932C37.249 36.7798 35.5439 39.4197 34.8144 42.3903C31.3797 42.8634 28.2528 44.6229 26.0656 47.3132C23.8785 50.0034 22.7943 53.4237 23.0323 56.8826C23.2702 60.3416 24.8126 63.5812 27.3475 65.9466C29.8824 68.312 33.2209 69.6267 36.688 69.625H52.6568V75.3281H51.5162C50.6089 75.3291 49.7391 75.69 49.0976 76.3315C48.4561 76.973 48.0953 77.8428 48.0943 78.75V93.5781C48.0953 94.4854 48.4561 95.3551 49.0976 95.9967C49.7391 96.6382 50.6089 96.999 51.5162 97H67.4849C68.3921 96.999 69.2619 96.6382 69.9034 95.9967C70.545 95.3551 70.9058 94.4854 70.9068 93.5781V78.75C70.9058 77.8428 70.545 76.973 69.9034 76.3315C69.2619 75.69 68.3921 75.3291 67.4849 75.3281H66.3443V69.625H80.0318C84.1733 69.6275 88.1538 68.0209 91.1333 65.1442C94.1127 62.2676 95.858 58.3459 96.0008 54.2068C96.1436 50.0677 94.6727 46.0351 91.8986 42.9599C89.1245 39.8848 85.2641 38.0077 81.1323 37.7248ZM68.6255 78.75V93.5781C68.6253 93.8806 68.505 94.1705 68.2912 94.3844C68.0773 94.5982 67.7873 94.7185 67.4849 94.7188H51.5162C51.2137 94.7185 50.9238 94.5982 50.7099 94.3844C50.4961 94.1705 50.3758 93.8806 50.3755 93.5781V78.75C50.3758 78.4476 50.4961 78.1576 50.7099 77.9438C50.9238 77.7299 51.2137 77.6096 51.5162 77.6094H67.4849C67.7873 77.6096 68.0773 77.7299 68.2912 77.9438C68.505 78.1576 68.6253 78.4476 68.6255 78.75ZM64.063 75.3281H54.938V69.625H64.063V75.3281ZM80.0318 67.3438H54.938V58.2188C54.9358 57.1092 55.3388 56.037 56.0713 55.2036C56.8038 54.3702 57.8155 53.833 58.9162 53.693C60.0169 53.5529 61.1308 53.8196 62.0487 54.4429C62.9667 55.0663 63.6254 56.0034 63.9011 57.0781H62.9224C62.6199 57.0781 62.3298 57.1983 62.1159 57.4122C61.902 57.6261 61.7818 57.9162 61.7818 58.2188C61.7818 58.5213 61.902 58.8114 62.1159 59.0253C62.3298 59.2392 62.6199 59.3594 62.9224 59.3594H67.4849C67.7874 59.3594 68.0775 59.2392 68.2915 59.0253C68.5054 58.8114 68.6255 58.5213 68.6255 58.2188C68.6255 57.9162 68.5054 57.6261 68.2915 57.4122C68.0775 57.1983 67.7874 57.0781 67.4849 57.0781H66.2416C65.9571 55.3858 65.0468 53.8622 63.6913 52.8098C62.3359 51.7573 60.6343 51.2528 58.9243 51.3964C57.2142 51.54 55.6206 52.3211 54.4596 53.5849C53.2986 54.8487 52.6551 56.5027 52.6568 58.2188V67.3438H36.688C33.7371 67.3452 30.9006 66.2024 28.775 64.1556C26.6494 62.1088 25.4002 59.3176 25.2902 56.3687C25.1802 53.4199 26.2179 50.5433 28.1852 48.3438C30.1524 46.1443 32.8959 44.7934 35.8387 44.575H35.8403C37.9964 44.4325 40.1528 44.8479 42.1016 45.7814C42.2375 45.8443 42.3845 45.8798 42.5342 45.8859C42.6839 45.892 42.8333 45.8685 42.974 45.8169C43.1146 45.7652 43.2437 45.6864 43.3538 45.5848C43.464 45.4833 43.553 45.3611 43.616 45.2251C43.6789 45.0891 43.7144 44.9421 43.7205 44.7924C43.7266 44.6427 43.7031 44.4933 43.6515 44.3527C43.5998 44.2121 43.521 44.083 43.4194 43.9728C43.3179 43.8627 43.1956 43.7736 43.0597 43.7107C41.2273 42.852 39.2417 42.3684 37.2197 42.2883C37.6985 40.7302 38.507 39.2935 39.5903 38.0755C40.6737 36.8576 42.0064 35.8871 43.498 35.2299C44.9897 34.5728 46.6053 34.2443 48.2351 34.2668C49.865 34.2894 51.4709 34.6624 52.9438 35.3606C54.9015 36.2919 56.583 37.7168 57.823 39.495C57.9076 39.621 58.0165 39.7289 58.1433 39.8123C58.2702 39.8956 58.4123 39.9529 58.5615 39.9806C58.7108 40.0083 58.864 40.006 59.0123 39.9738C59.1606 39.9415 59.301 39.88 59.4252 39.7928C59.5494 39.7056 59.655 39.5945 59.7358 39.466C59.8165 39.3375 59.8708 39.1942 59.8954 39.0444C59.9201 38.8947 59.9146 38.7415 59.8793 38.5939C59.844 38.4463 59.7796 38.3072 59.6899 38.1848C58.4227 36.3883 56.7712 34.8966 54.8553 33.8183C56.0051 31.1749 58.0306 29.0085 60.5908 27.6837C63.151 26.3589 66.0894 25.9568 68.9114 26.545C71.7333 27.1332 74.2664 28.6758 76.0841 30.913C77.9018 33.1503 78.8932 35.9455 78.8912 38.8281C78.8738 40.9745 78.3687 43.0888 77.4142 45.0113C77.3453 45.1466 77.3041 45.2943 77.2931 45.4457C77.2821 45.5972 77.3014 45.7493 77.3499 45.8931C77.3984 46.037 77.4751 46.1697 77.5756 46.2835C77.676 46.3973 77.7982 46.49 77.9349 46.5559C78.0717 46.6219 78.2202 46.66 78.3718 46.6678C78.5234 46.6756 78.6751 46.6531 78.8179 46.6016C78.9607 46.5501 79.0918 46.4705 79.2034 46.3677C79.3151 46.2649 79.4051 46.1407 79.4682 46.0027C80.3819 44.1291 80.9359 42.1008 81.1017 40.0229C84.6279 40.2979 87.9105 41.9277 90.261 44.5706C92.6115 47.2134 93.8472 50.6638 93.7088 54.198C93.5704 57.7321 92.0687 61.0754 89.5187 63.5263C86.9687 65.9772 83.5686 67.3454 80.0318 67.3438ZM59.5005 81.0312C58.6941 81.0293 57.9131 81.313 57.2958 81.8319C56.6786 82.3508 56.2649 83.0715 56.1283 83.8662C55.9916 84.661 56.1408 85.4784 56.5492 86.1737C56.9577 86.869 57.5992 87.3973 58.3599 87.6648V90.1562C58.3599 90.4588 58.4801 90.7489 58.694 90.9628C58.9079 91.1767 59.198 91.2969 59.5005 91.2969C59.803 91.2969 60.0932 91.1767 60.3071 90.9628C60.521 90.7489 60.6412 90.4588 60.6412 90.1562V87.6648C61.4019 87.3973 62.0433 86.869 62.4518 86.1737C62.8603 85.4784 63.0094 84.661 62.8728 83.8662C62.7361 83.0715 62.3225 82.3508 61.7052 81.8319C61.088 81.313 60.3069 81.0293 59.5005 81.0312ZM59.5005 85.5938C59.2749 85.5938 59.0544 85.5269 58.8668 85.4015C58.6793 85.2762 58.5331 85.098 58.4467 84.8896C58.3604 84.6812 58.3378 84.4519 58.3818 84.2306C58.4258 84.0093 58.5345 83.8061 58.694 83.6466C58.8535 83.4871 59.0567 83.3784 59.278 83.3344C59.4993 83.2904 59.7286 83.313 59.937 83.3993C60.1455 83.4857 60.3236 83.6319 60.4489 83.8194C60.5743 84.007 60.6412 84.2275 60.6412 84.4531C60.6409 84.7556 60.5206 85.0455 60.3068 85.2594C60.0929 85.4732 59.803 85.5935 59.5005 85.5938Z" fill="white"/>
<defs>
<linearGradient id="paint0_linear" x1="2.90485e-06" y1="-18.75" x2="128.59" y2="-10.2709" gradientUnits="userSpaceOnUse">
<stop stop-color="#732DE6"/>
<stop offset="1" stop-color="#552BEE"/>
</linearGradient>
</defs>
</svg>
