<svg width="120" height="120" viewBox="0 0 120 120" fill="none" xmlns="http://www.w3.org/2000/svg">
<circle cx="60" cy="60" r="60" fill="url(#paint0_linear)"/>
<path d="M86.83 36.4039C86.8295 36.1555 86.7433 35.9148 86.586 35.7224C86.4286 35.5301 86.2098 35.398 85.9663 35.3483C84.6807 35.0775 83.5269 34.374 82.6973 33.3552C81.8677 32.3364 81.4126 31.064 81.4079 29.7502C81.4067 29.5064 81.3231 29.2701 81.1707 29.0799C81.0182 28.8897 80.8058 28.7567 80.5681 28.7025L60.135 24.0241C59.9766 23.992 59.8135 23.992 59.6551 24.0241L39.222 28.6945C38.9917 28.7563 38.7884 28.8926 38.6437 29.0821C38.499 29.2717 38.4211 29.5037 38.4222 29.7422C38.416 31.0556 37.9604 32.3273 37.131 33.3458C36.3017 34.3643 35.1487 35.0681 33.8638 35.3403C33.6203 35.39 33.4014 35.5221 33.2441 35.7144C33.0867 35.9068 33.0005 36.1475 33 36.3959V65.1863C32.9919 69.3531 34.0303 73.4552 36.0201 77.1162C38.0099 80.7772 40.8873 83.8798 44.3882 86.1393L59.3432 95.848C59.5098 95.9482 59.7007 96.0007 59.895 96C60.1029 96.001 60.3062 95.9397 60.4789 95.824L69.012 90.2899C71.1882 91.7837 73.8159 92.4746 76.4453 92.2443C79.0748 92.014 81.5424 90.8768 83.4258 89.0275C85.3091 87.1782 86.4911 84.7317 86.7692 82.1069C87.0474 79.482 86.4045 76.8422 84.9507 74.6391C86.1925 71.634 86.8311 68.4139 86.83 65.1623V36.4039ZM59.895 93.6408L45.4999 84.3079C42.3033 82.2415 39.6765 79.4058 37.8601 76.0609C36.0437 72.7159 35.0958 68.9686 35.1033 65.1623V37.2277C36.5351 36.7512 37.8008 35.8755 38.7515 34.7038C39.7022 33.5321 40.2983 32.113 40.4695 30.6139L59.895 26.2073L79.3046 30.6139C79.4771 32.1149 80.0755 33.5353 81.0292 34.7072C81.9829 35.8792 83.2521 36.7537 84.6868 37.2277V65.1623C84.6883 67.7395 84.2502 70.298 83.3912 72.7278C81.4437 70.8469 78.8947 69.714 76.1936 69.5288C75.5856 66.6345 74.2141 63.9557 72.2214 61.7703C70.2287 59.585 67.6875 57.9728 64.8614 57.101C66.9351 55.9944 68.5794 54.2265 69.533 52.0781C70.4867 49.9298 70.6949 47.5243 70.1245 45.2441C69.5542 42.9639 68.2381 40.9397 66.3853 39.4933C64.5326 38.0469 62.2495 37.2612 59.899 37.2612C57.5486 37.2612 55.2655 38.0469 53.4128 39.4933C51.56 40.9397 50.2439 42.9639 49.6736 45.2441C49.1032 47.5243 49.3114 49.9298 50.2651 52.0781C51.2187 54.2265 52.863 55.9944 54.9367 57.101C51.5586 58.1596 48.6063 60.2684 46.5092 63.1206C44.4121 65.9727 43.2797 69.4196 43.2766 72.9597V73.6715C43.2766 73.9578 43.3904 74.2324 43.5928 74.4349C43.7953 74.6373 44.0699 74.7511 44.3562 74.7511C44.6426 74.7511 44.9172 74.6373 45.1197 74.4349C45.3221 74.2324 45.4359 73.9578 45.4359 73.6715V72.9597C45.4341 69.4157 46.7339 65.9945 49.0885 63.3458C51.443 60.697 54.6884 59.0053 58.2082 58.5918C61.728 58.1784 65.277 59.072 68.1813 61.103C71.0856 63.134 73.1429 66.1609 73.9623 69.6088C71.2262 69.9787 68.7157 71.3239 66.8922 73.3971C65.0688 75.4703 64.0552 78.1321 64.0377 80.893C64.0182 83.8602 65.1673 86.7158 67.2366 88.8424L59.895 93.6408ZM51.5059 47.8081C51.5059 46.1489 51.9979 44.5269 52.9197 43.1473C53.8415 41.7677 55.1517 40.6925 56.6846 40.0575C58.2176 39.4226 59.9044 39.2564 61.5317 39.5801C63.159 39.9038 64.6539 40.7028 65.8271 41.8761C67.0004 43.0493 67.7993 44.5441 68.123 46.1715C68.4467 47.7988 68.2806 49.4856 67.6457 51.0185C67.0107 52.5514 65.9354 53.8617 64.5558 54.7835C63.1762 55.7053 61.5543 56.1973 59.895 56.1973C57.6707 56.1952 55.5382 55.3106 53.9653 53.7378C52.3925 52.165 51.508 50.0324 51.5059 47.8081ZM75.4338 90.13C72.984 90.1278 70.6349 89.1542 68.9019 87.4227C67.1688 85.6911 66.1932 83.3429 66.1889 80.893C66.1988 78.4738 67.1533 76.1542 68.849 74.4287C70.5446 72.7031 72.8472 71.7083 75.2659 71.6561H75.4338C76.8805 71.6611 78.306 72.0034 79.5971 72.6559C80.8882 73.3084 82.0094 74.2531 82.8714 75.4149C83.8839 76.7914 84.4952 78.4216 84.6373 80.1244C84.7793 81.8273 84.4466 83.5363 83.6761 85.0615C82.9057 86.5868 81.7275 87.8686 80.2725 88.7647C78.8175 89.6609 77.1427 90.1362 75.4338 90.1379V90.13Z" fill="white"/>
<path d="M78.7688 77.1664L74.2903 82.3007L72.059 80.0055C71.9614 79.9036 71.8446 79.822 71.7154 79.7652C71.5861 79.7085 71.447 79.6777 71.3059 79.6748C71.1648 79.6718 71.0245 79.6967 70.893 79.7479C70.7615 79.7992 70.6414 79.8758 70.5396 79.9735C70.4377 80.0711 70.356 80.1879 70.2993 80.3171C70.2426 80.4464 70.2118 80.5855 70.2089 80.7266C70.2059 80.8677 70.2307 81.008 70.282 81.1395C70.3332 81.271 70.4099 81.3911 70.5076 81.493L73.5306 84.6919C73.6328 84.8009 73.7568 84.8872 73.8946 84.9451C74.0324 85.0029 74.1809 85.0311 74.3303 85.0278C74.4817 85.0246 74.6308 84.9903 74.7684 84.927C74.906 84.8637 75.0291 84.7728 75.13 84.6599L80.4002 78.6379C80.5478 78.4212 80.6114 78.1582 80.5793 77.898C80.5472 77.6378 80.4214 77.3981 80.2256 77.2238C80.0297 77.0495 79.7771 76.9524 79.515 76.9507C79.2528 76.949 78.9989 77.0427 78.8008 77.2144L78.7688 77.1664Z" fill="white"/>
<defs>
<linearGradient id="paint0_linear" x1="2.90485e-06" y1="-18.75" x2="128.59" y2="-10.2709" gradientUnits="userSpaceOnUse">
<stop stop-color="#732DE6"/>
<stop offset="1" stop-color="#552BEE"/>
</linearGradient>
</defs>
</svg>
