<svg width="110" height="20" viewBox="0 0 110 20" fill="none" xmlns="http://www.w3.org/2000/svg">
<path d="M10.3638 8.31978C7.10469 7.39939 6.13152 6.86381 6.13152 5.58883C6.13152 4.66844 6.92363 3.87626 8.99078 3.87626C10.1752 3.87626 11.9104 4.08758 13.3589 5.40772C13.487 5.53583 13.6982 5.42964 13.7814 5.36395L15.6374 3.50052C15.743 3.40252 15.6921 3.26677 15.5826 3.11567C14.1718 1.30505 11.5389 0.724121 9.04174 0.724121C5.26207 0.724121 2.35002 2.40649 2.35002 5.6128C2.35002 8.90205 4.60568 10.3279 8.86815 11.55C11.3049 12.2441 12.6478 12.7798 12.6478 14.0774C12.6478 15.4278 11.1239 16.0615 9.20764 16.0615C7.18581 16.0615 5.36772 15.6318 3.84381 14.1C3.76826 14.002 3.55685 14.0453 3.45119 14.1756L1.5048 16.2954C1.45006 16.4164 1.50479 16.5445 1.58801 16.6201C3.37601 18.5363 6.15994 19.2757 8.96639 19.2757C12.912 19.2757 16.2993 17.5933 16.2993 14.0022C16.2993 10.5319 14.0662 9.36256 10.3619 8.32145" fill="white"/>
<path d="M35.2611 1.04736H31.9795C31.7906 1.04736 31.6624 1.20561 31.6624 1.30415V12.0093C31.6624 14.3254 30.8174 15.8041 27.9129 15.8041C25.1744 15.8041 24.1786 14.4839 24.1786 12.1149V1.3871C24.1786 1.25133 24.073 1.0477 23.8847 1.0477H20.6557C20.4745 1.0477 20.3464 1.25133 20.3464 1.3871V12.6204C20.3464 16.9056 23.1755 19.1764 27.8605 19.1764C32.5002 19.1764 35.5179 16.8527 35.5179 12.545V1.30415C35.5179 1.20616 35.4198 1.04736 35.2611 1.04736Z" fill="white"/>
<path d="M47.6318 0.821289C42.977 0.821289 39.9594 3.1449 39.9594 7.44509V18.6935C39.9594 18.7915 40.0649 18.9426 40.2232 18.9426H43.5049C43.6862 18.9426 43.8219 18.7915 43.8219 18.6935V7.98081C43.8219 5.66472 44.6594 4.18603 47.579 4.18603C50.3024 4.18603 51.3057 5.51382 51.3057 7.88274V18.6105C51.3057 18.7463 51.4114 18.9423 51.5997 18.9423H54.8287C55.0099 18.9423 55.1457 18.7463 55.1457 18.6105V7.36966C55.1457 3.09208 52.309 0.821289 47.6316 0.821289" fill="white"/>
<path d="M88.6289 1.04736H85.3471C85.1659 1.04736 85.0379 1.20561 85.0379 1.30415V12.0093C85.0379 14.3254 84.1929 15.8041 81.2732 15.8041C78.5422 15.8041 77.5464 14.4839 77.5464 12.1149V1.3871C77.5464 1.25133 77.4407 1.0477 77.2595 1.0477H74.0307C73.8418 1.0477 73.7136 1.25133 73.7136 1.3871V12.6204C73.7136 16.9056 76.5503 19.1764 81.2201 19.1764C85.8749 19.1764 88.8925 16.8527 88.8925 12.545V1.30415C88.8925 1.20616 88.787 1.04736 88.6287 1.04736" fill="white"/>
<path d="M101.003 0.821289C96.3559 0.821289 93.3383 3.1449 93.3383 7.44509V18.6935C93.3383 18.7915 93.4438 18.9426 93.5949 18.9426H96.8767C97.0655 18.9426 97.1936 18.7915 97.1936 18.6935V7.98081C97.1936 5.66472 98.0386 4.18603 100.943 4.18603C103.682 4.18603 104.677 5.51382 104.677 7.88274V18.6105C104.677 18.7463 104.783 18.9423 104.971 18.9423H108.2C108.389 18.9423 108.517 18.7463 108.517 18.6105V7.36966C108.517 3.09208 105.681 0.821289 101.003 0.821289" fill="white"/>
<path d="M69.8049 0.858655H69.6917C68.7713 0.836757 68.4318 0.820312 68.0773 0.820312C63.43 0.820312 60.4047 3.14393 60.4047 7.44412V18.6925C60.4047 18.7905 60.5181 18.9417 60.6686 18.9417H63.9579C64.1391 18.9417 64.2672 18.7911 64.2672 18.6925V7.97975C64.2672 5.66366 65.1121 4.18505 68.0166 4.18505H69.8046C70.1287 4.18505 70.378 3.92832 70.378 3.62678V1.42386C70.378 1.11454 70.1289 0.857987 69.8046 0.857987" fill="white"/>
</svg>
